<svg width="216" height="75" viewBox="0 0 216 75" fill="none" xmlns="http://www.w3.org/2000/svg">
<path d="M14.1095 33.9026H0.96024C0.429965 33.9026 0 33.5073 0 33.0196C0 32.5319 0.429965 32.1366 0.96024 32.1366H14.1095C14.6399 32.1366 15.0697 32.5319 15.0697 33.0196C15.0697 33.5073 14.6399 33.9026 14.1095 33.9026Z" fill="#C5D3DD"/>
<path d="M14.6217 39.4475H4.6287C4.09842 39.4475 3.66846 39.0522 3.66846 38.5645C3.66846 38.0769 4.09842 37.6815 4.6287 37.6815H14.6219C15.1521 37.6815 15.5821 38.0769 15.5821 38.5645C15.582 39.0522 15.1521 39.4475 14.6217 39.4475Z" fill="#C5D3DD"/>
<path d="M16.6211 44.0809H10.5569C10.0266 44.0809 9.59668 43.6856 9.59668 43.1979C9.59668 42.7103 10.0266 42.3149 10.5569 42.3149H16.6211C17.1513 42.3149 17.5813 42.7103 17.5813 43.1979C17.5813 43.6856 17.1515 44.0809 16.6211 44.0809Z" fill="#C5D3DD"/>
<path d="M15.5178 28.3577H5.52469C4.99442 28.3577 4.56445 27.9623 4.56445 27.4747C4.56445 26.987 4.99442 26.5917 5.52469 26.5917H15.5178C16.0482 26.5917 16.4781 26.987 16.4781 27.4747C16.4781 27.9625 16.0481 28.3577 15.5178 28.3577Z" fill="#C5D3DD"/>
<path d="M17.5175 23.7243H11.4534C10.923 23.7243 10.4932 23.3289 10.4932 22.8413C10.4932 22.3536 10.9231 21.9583 11.4534 21.9583H17.5175C18.0478 21.9583 18.4778 22.3536 18.4778 22.8413C18.4778 23.3289 18.0478 23.7243 17.5175 23.7243Z" fill="#C5D3DD"/>
<path d="M25.9823 17.4248L21.4925 12.2026C21.1746 11.8329 20.6172 11.7906 20.2473 12.1087L17.4528 14.5112C17.2753 14.6639 17.1657 14.8809 17.148 15.1144C17.1304 15.3478 17.2063 15.5788 17.359 15.7565L21.8488 20.9787C22.0234 21.1818 22.2704 21.286 22.5187 21.286C22.7225 21.286 22.9274 21.2158 23.0939 21.0725L25.8884 18.6701C26.0659 18.5174 26.1755 18.3004 26.1932 18.0669C26.211 17.8333 26.135 17.6023 25.9823 17.4248Z" fill="#FEDF30"/>
<path d="M23.3555 10.6009L21.4596 8.39573C21.1416 8.02604 20.5843 7.98389 20.2144 8.30189L13.694 13.9077C13.5165 14.0604 13.4069 14.2774 13.3892 14.5108C13.3717 14.7443 13.4475 14.9753 13.6002 15.153L15.4961 17.3581C15.6707 17.5612 15.9175 17.6654 16.166 17.6654C16.3698 17.6654 16.5746 17.5952 16.7412 17.452L23.2616 11.8462C23.4391 11.6935 23.5487 11.4765 23.5664 11.243C23.584 11.0094 23.5081 10.7784 23.3555 10.6009Z" fill="#D7AA02"/>
<path d="M55.1951 15.1144C55.1776 14.8809 55.0679 14.6639 54.8903 14.5112L52.0959 12.1087C51.7261 11.7907 51.1686 11.8328 50.8506 12.2026L46.3608 17.4248C46.2083 17.6023 46.1323 17.8333 46.15 18.0669C46.1676 18.3004 46.2772 18.5173 46.4548 18.67L49.2492 21.0725C49.4159 21.2158 49.6207 21.286 49.8246 21.286C50.0729 21.286 50.3199 21.1818 50.4945 20.9787L54.9843 15.7565C55.1368 15.5788 55.2127 15.3479 55.1951 15.1144Z" fill="#FEDF30"/>
<path d="M58.6495 13.9077L52.129 8.30188C51.9513 8.14918 51.7204 8.07242 51.4869 8.0909C51.2534 8.10845 51.0364 8.21817 50.8837 8.39572L48.9878 10.6009C48.67 10.9707 48.712 11.5282 49.0818 11.846L55.6023 17.4518C55.763 17.5901 55.9675 17.6653 56.178 17.6653C56.2001 17.6653 56.2223 17.6645 56.2444 17.6628C56.4779 17.6452 56.6948 17.5355 56.8475 17.3579L58.7433 15.1527C59.0613 14.7832 59.0192 14.2256 58.6495 13.9077Z" fill="#D7AA02"/>
<path d="M33.5864 6.94843H39.005V14.6871H33.5864V6.94843Z" fill="#0055A3"/>
<path d="M39.6177 1.99652H29.6618C28.7279 1.99652 27.9707 2.75367 27.9707 3.68765V5.74211C27.9707 6.6761 28.7279 7.43325 29.6618 7.43325H39.5643L41.9688 6.78512V2.68574L39.6177 1.99652Z" fill="#0473CE"/>
<path d="M42.9285 1.99652H39.3965C40.3305 1.99652 41.0876 2.75367 41.0876 3.68765V5.74211C41.0876 6.6761 40.3305 7.43325 39.3965 7.43325H42.9285C43.8625 7.43325 44.6196 6.6761 44.6196 5.74211V3.68765C44.6196 2.75367 43.8625 1.99652 42.9285 1.99652Z" fill="#0055A3"/>
<path d="M30.4714 56.2437C18.3516 53.0271 11.1342 40.5944 14.3508 28.4746C16.9443 18.7023 25.5296 12.1172 35.1114 11.619C37.4131 11.4993 57.5585 15.1943 57.5585 33.6047C57.5585 47.095 45.2526 57.7876 34.5295 56.9386C33.1816 56.8319 31.8245 56.6029 30.4714 56.2437Z" fill="#26A6FE"/>
<path d="M36.2953 11.5943C35.701 11.5943 35.1121 11.6173 34.5293 11.6622C46.2434 12.5635 55.4679 22.3538 55.4679 34.2989C55.4679 46.2441 46.2433 56.0344 34.5293 56.9357C35.1121 56.9805 35.701 57.0036 36.2953 57.0036C48.8347 57.0036 58.9999 46.8385 58.9999 34.2989C58.9999 21.7594 48.8348 11.5943 36.2953 11.5943Z" fill="#0593FC"/>
<path d="M36.2951 51.9802C46.0602 51.9802 53.9764 44.064 53.9764 34.2989C53.9764 24.5338 46.0602 16.6176 36.2951 16.6176C26.53 16.6176 18.6138 24.5338 18.6138 34.2989C18.6138 44.064 26.53 51.9802 36.2951 51.9802Z" fill="#FFF3EF"/>
<path d="M38.5802 16.7658C37.2 16.5859 35.8364 16.571 34.5088 16.7047C34.6883 16.7226 34.868 16.7424 35.0481 16.7658C44.7314 18.0276 51.5583 26.9004 50.2965 36.5836C49.2145 44.8867 42.5365 51.0891 34.55 51.8932C44.0212 52.838 52.5902 46.0868 53.8285 36.5836C55.0904 26.9004 48.2634 18.0276 38.5802 16.7658Z" fill="#F1F0F0"/>
<path d="M36.2993 21.6708C35.8455 21.6708 35.4775 21.3029 35.4775 20.8491V18.5787C35.4775 18.1248 35.8455 17.7569 36.2993 17.7569C36.7532 17.7569 37.1211 18.1248 37.1211 18.5787V20.8491C37.1211 21.3029 36.7532 21.6708 36.2993 21.6708Z" fill="#B6C4CF"/>
<path d="M45.879 25.5964C45.6686 25.5964 45.4583 25.5162 45.2978 25.3557C44.9769 25.0348 44.9769 24.5145 45.2979 24.1936L46.9034 22.5881C47.2242 22.2671 47.7444 22.2672 48.0655 22.5881C48.3865 22.9091 48.3865 23.4293 48.0654 23.7503L46.46 25.3557C46.2995 25.5161 46.0891 25.5964 45.879 25.5964Z" fill="#B6C4CF"/>
<path d="M52.1469 35.1459H49.8765C49.4226 35.1459 49.0547 34.778 49.0547 34.3241C49.0547 33.8702 49.4226 33.5023 49.8765 33.5023H52.1469C52.6007 33.5023 52.9686 33.8702 52.9686 34.3241C52.9686 34.778 52.6007 35.1459 52.1469 35.1459Z" fill="#B6C4CF"/>
<path d="M47.5567 46.3307C47.3464 46.3307 47.136 46.2504 46.9755 46.0901L45.3701 44.4847C45.0492 44.1637 45.0492 43.6434 45.3701 43.3225C45.6912 43.0016 46.2113 43.0016 46.5324 43.3225L48.1378 44.9279C48.4587 45.2489 48.4587 45.7691 48.1378 46.0901C47.9773 46.2505 47.7669 46.3307 47.5567 46.3307Z" fill="#B6C4CF"/>
<path d="M36.4014 50.9938C35.9475 50.9938 35.5796 50.6259 35.5796 50.172V47.9015C35.5796 47.4477 35.9475 47.0797 36.4014 47.0797C36.8552 47.0797 37.2232 47.4477 37.2232 47.9015V50.172C37.2232 50.6258 36.8552 50.9938 36.4014 50.9938Z" fill="#B6C4CF"/>
<path d="M25.2163 46.4032C25.006 46.4032 24.7956 46.3231 24.6352 46.1625C24.3143 45.8415 24.3143 45.3213 24.6352 45.0003L26.2407 43.3949C26.5616 43.074 27.0819 43.074 27.4028 43.3949C27.7238 43.7159 27.7238 44.2361 27.4028 44.5571L25.7974 46.1625C25.6369 46.3229 25.4265 46.4032 25.2163 46.4032Z" fill="#B6C4CF"/>
<path d="M22.8241 35.2483H20.5537C20.0999 35.2483 19.7319 34.8804 19.7319 34.4265C19.7319 33.9727 20.0999 33.6047 20.5537 33.6047H22.8241C23.278 33.6047 23.6459 33.9727 23.6459 34.4265C23.6459 34.8804 23.278 35.2483 22.8241 35.2483Z" fill="#B6C4CF"/>
<path d="M26.7499 25.6687C26.5396 25.6687 26.3292 25.5886 26.1689 25.4281L24.5635 23.8227C24.2425 23.5017 24.2425 22.9815 24.5635 22.6605C24.8844 22.3396 25.4047 22.3395 25.7256 22.6605L27.331 24.2659C27.652 24.5869 27.652 25.1071 27.331 25.4281C27.1706 25.5886 26.9602 25.6687 26.7499 25.6687Z" fill="#B6C4CF"/>
<path d="M36.2956 33.9026C35.8078 33.9026 35.4126 33.5073 35.4126 33.0196V27.082C35.4126 26.5944 35.8078 26.199 36.2956 26.199C36.7834 26.199 37.1786 26.5944 37.1786 27.082V33.0196C37.1786 33.5073 36.7833 33.9026 36.2956 33.9026Z" fill="#678D98"/>
<path d="M43.7246 42.4055C43.4985 42.4055 43.2726 42.3193 43.1001 42.1469L36.6717 35.7184C36.3269 35.3736 36.3269 34.8145 36.6717 34.4698C37.0168 34.1249 37.5758 34.1249 37.9206 34.4698L44.3489 40.8982C44.6938 41.243 44.6938 41.8021 44.3489 42.1469C44.1766 42.3192 43.9505 42.4055 43.7246 42.4055Z" fill="#678D98"/>
<path d="M36.4132 35.9854C35.4348 35.9854 34.6387 35.1894 34.6387 34.211C34.6387 33.2327 35.4347 32.4367 36.4132 32.4367C37.3915 32.4367 38.1875 33.2327 38.1875 34.211C38.1875 35.1894 37.3915 35.9854 36.4132 35.9854Z" fill="#3E5959"/>
<path d="M79.5568 40C87.5341 40 92.3665 35.0653 92.3665 26.8835C92.3665 18.7273 87.5341 13.8182 79.6335 13.8182H70.2756V40H79.5568ZM75.8111 35.2571V18.5611H79.3395C84.2486 18.5611 86.8438 21.0668 86.8438 26.8835C86.8438 32.7259 84.2486 35.2571 79.3267 35.2571H75.8111ZM96.467 40H107.653C113.534 40 116.666 36.9318 116.666 32.7642C116.666 28.8906 113.892 26.5511 110.913 26.4105V26.1548C113.636 25.5412 115.643 23.6108 115.643 20.5298C115.643 16.6051 112.728 13.8182 106.95 13.8182H96.467V40ZM102.002 35.4744V28.5199H106.643C109.302 28.5199 110.951 30.054 110.951 32.2145C110.951 34.1832 109.609 35.4744 106.515 35.4744H102.002ZM102.002 24.7741V18.2926H106.208C108.663 18.2926 110.056 19.5582 110.056 21.4503C110.056 23.5213 108.369 24.7741 106.106 24.7741H102.002ZM134.471 21.348H139.776C139.7 16.6818 135.864 13.4602 130.035 13.4602C124.295 13.4602 120.089 16.6307 120.114 21.3864C120.102 25.2472 122.825 27.4588 127.248 28.5199L130.099 29.2358C132.95 29.9261 134.535 30.7443 134.548 32.5085C134.535 34.4261 132.719 35.7301 129.907 35.7301C127.031 35.7301 124.96 34.4006 124.781 31.7798H119.424C119.565 37.4432 123.617 40.3707 129.971 40.3707C136.363 40.3707 140.121 37.3153 140.134 32.5213C140.121 28.1619 136.836 25.848 132.285 24.8253L129.933 24.2628C127.657 23.7386 125.752 22.8949 125.79 21.0156C125.79 19.3281 127.286 18.0881 129.996 18.0881C132.643 18.0881 134.266 19.2898 134.471 21.348Z" fill="white"/>
<path d="M72.1818 58.142C73.5909 58.142 74.3239 57.3295 74.6591 56.6023H74.7614V58H77.1477V46.3636H74.733V50.7386H74.6591C74.3352 50.0284 73.6364 49.1591 72.1761 49.1591C70.2614 49.1591 68.642 50.6477 68.642 53.6477C68.642 56.5682 70.1932 58.142 72.1818 58.142ZM72.9489 56.2159C71.7614 56.2159 71.1136 55.1591 71.1136 53.6364C71.1136 52.125 71.75 51.0852 72.9489 51.0852C74.125 51.0852 74.7841 52.0795 74.7841 53.6364C74.7841 55.1932 74.1136 56.2159 72.9489 56.2159ZM83.081 58.1705C85.7287 58.1705 87.3764 56.358 87.3764 53.6705C87.3764 50.9659 85.7287 49.1591 83.081 49.1591C80.4332 49.1591 78.7855 50.9659 78.7855 53.6705C78.7855 56.358 80.4332 58.1705 83.081 58.1705ZM83.0923 56.2955C81.8707 56.2955 81.2457 55.1761 81.2457 53.6534C81.2457 52.1307 81.8707 51.0057 83.0923 51.0057C84.2912 51.0057 84.9162 52.1307 84.9162 53.6534C84.9162 55.1761 84.2912 56.2955 83.0923 56.2955ZM91.3707 52.9545C91.3764 51.8295 92.0469 51.1705 93.0241 51.1705C93.9957 51.1705 94.581 51.8068 94.5753 52.875V58H96.9957V52.4432C96.9957 50.4091 95.8026 49.1591 93.9844 49.1591C92.6889 49.1591 91.7514 49.7955 91.3594 50.8125H91.2571V49.2727H88.9503V58H91.3707V52.9545ZM100.932 46.3636H99.1136V47.6023C99.1136 48.5625 98.7727 49.2614 98.392 49.8636L99.4602 50.4943C100.261 49.8239 100.932 48.6307 100.932 47.5909V46.3636ZM107.483 49.2727H105.841V47.1818H103.42V49.2727H102.227V51.0909H103.42V55.6364C103.409 57.3466 104.574 58.1932 106.33 58.1193C106.955 58.0966 107.398 57.9716 107.642 57.892L107.261 56.0909C107.142 56.1136 106.886 56.1705 106.659 56.1705C106.176 56.1705 105.841 55.9886 105.841 55.3182V51.0909H107.483V49.2727ZM112.808 58H115.195V56.6023H115.303C115.638 57.3295 116.371 58.142 117.78 58.142C119.768 58.142 121.32 56.5682 121.32 53.6477C121.32 50.6477 119.7 49.1591 117.786 49.1591C116.325 49.1591 115.626 50.0284 115.303 50.7386H115.229V46.3636H112.808V58ZM115.178 53.6364C115.178 52.0795 115.837 51.0852 117.013 51.0852C118.212 51.0852 118.848 52.125 118.848 53.6364C118.848 55.1591 118.2 56.2159 117.013 56.2159C115.848 56.2159 115.178 55.1932 115.178 53.6364ZM126.912 58.1705C129.071 58.1705 130.526 57.1193 130.866 55.5L128.628 55.3523C128.384 56.017 127.759 56.3636 126.952 56.3636C125.741 56.3636 124.974 55.5625 124.974 54.2614V54.2557H130.918V53.5909C130.918 50.625 129.122 49.1591 126.815 49.1591C124.247 49.1591 122.582 50.983 122.582 53.6761C122.582 56.4432 124.224 58.1705 126.912 58.1705ZM124.974 52.7557C125.026 51.7614 125.781 50.9659 126.855 50.9659C127.906 50.9659 128.634 51.7159 128.639 52.7557H124.974ZM143.462 51.7614C143.246 50.1534 141.95 49.1591 139.746 49.1591C137.513 49.1591 136.041 50.1932 136.047 51.875C136.041 53.1818 136.865 54.0284 138.57 54.3693L140.081 54.6705C140.842 54.8239 141.189 55.1023 141.2 55.5398C141.189 56.0568 140.626 56.4261 139.78 56.4261C138.916 56.4261 138.342 56.0568 138.195 55.3466L135.814 55.4716C136.041 57.142 137.462 58.1705 139.774 58.1705C142.036 58.1705 143.655 57.017 143.661 55.2955C143.655 54.0341 142.831 53.2784 141.138 52.9318L139.558 52.6136C138.746 52.4375 138.445 52.1591 138.45 51.7386C138.445 51.2159 139.036 50.875 139.786 50.875C140.626 50.875 141.126 51.3352 141.246 51.8977L143.462 51.7614ZM149.162 58.1705C151.321 58.1705 152.776 57.1193 153.116 55.5L150.878 55.3523C150.634 56.017 150.009 56.3636 149.202 56.3636C147.991 56.3636 147.224 55.5625 147.224 54.2614V54.2557H153.168V53.5909C153.168 50.625 151.372 49.1591 149.065 49.1591C146.497 49.1591 144.832 50.983 144.832 53.6761C144.832 56.4432 146.474 58.1705 149.162 58.1705ZM147.224 52.7557C147.276 51.7614 148.031 50.9659 149.105 50.9659C150.156 50.9659 150.884 51.7159 150.889 52.7557H147.224ZM157.963 58.142C159.372 58.142 160.105 57.3295 160.44 56.6023H160.543V58H162.929V46.3636H160.514V50.7386H160.44C160.116 50.0284 159.418 49.1591 157.957 49.1591C156.043 49.1591 154.423 50.6477 154.423 53.6477C154.423 56.5682 155.974 58.142 157.963 58.142ZM158.73 56.2159C157.543 56.2159 156.895 55.1591 156.895 53.6364C156.895 52.125 157.531 51.0852 158.73 51.0852C159.906 51.0852 160.565 52.0795 160.565 53.6364C160.565 55.1932 159.895 56.2159 158.73 56.2159ZM168.896 58.1705C171.055 58.1705 172.51 57.1193 172.851 55.5L170.612 55.3523C170.368 56.017 169.743 56.3636 168.936 56.3636C167.726 56.3636 166.959 55.5625 166.959 54.2614V54.2557H172.902V53.5909C172.902 50.625 171.107 49.1591 168.8 49.1591C166.232 49.1591 164.567 50.983 164.567 53.6761C164.567 56.4432 166.209 58.1705 168.896 58.1705ZM166.959 52.7557C167.01 51.7614 167.766 50.9659 168.839 50.9659C169.891 50.9659 170.618 51.7159 170.624 52.7557H166.959ZM176.902 52.9545C176.908 51.8295 177.578 51.1705 178.555 51.1705C179.527 51.1705 180.112 51.8068 180.107 52.875V58H182.527V52.4432C182.527 50.4091 181.334 49.1591 179.516 49.1591C178.22 49.1591 177.283 49.7955 176.891 50.8125H176.788V49.2727H174.482V58H176.902V52.9545ZM189.077 49.2727H187.435V47.1818H185.014V49.2727H183.821V51.0909H185.014V55.6364C185.003 57.3466 186.168 58.1932 187.923 58.1193C188.548 58.0966 188.991 57.9716 189.236 57.892L188.855 56.0909C188.736 56.1136 188.48 56.1705 188.253 56.1705C187.77 56.1705 187.435 55.9886 187.435 55.3182V51.0909H189.077V49.2727ZM193.142 58.1648C194.432 58.1648 195.267 57.6023 195.693 56.7898H195.761V58H198.057V52.1136C198.057 50.0341 196.295 49.1591 194.352 49.1591C192.261 49.1591 190.886 50.1591 190.551 51.75L192.79 51.9318C192.955 51.3523 193.472 50.9261 194.341 50.9261C195.165 50.9261 195.636 51.3409 195.636 52.0568V52.0909C195.636 52.6534 195.04 52.7273 193.523 52.875C191.795 53.0341 190.244 53.6136 190.244 55.5625C190.244 57.2898 191.477 58.1648 193.142 58.1648ZM193.835 56.4943C193.091 56.4943 192.557 56.1477 192.557 55.483C192.557 54.8011 193.119 54.4659 193.972 54.3466C194.5 54.2727 195.364 54.1477 195.653 53.9545V54.8807C195.653 55.7955 194.898 56.4943 193.835 56.4943ZM199.935 58H202.355V53.0625C202.355 51.9886 203.139 51.25 204.207 51.25C204.543 51.25 205.003 51.3068 205.23 51.3807V49.233C205.014 49.1818 204.713 49.1477 204.469 49.1477C203.491 49.1477 202.69 49.7159 202.372 50.7955H202.281V49.2727H199.935V58ZM208.241 61.2727C210.043 61.2727 210.997 60.3523 211.491 58.9432L214.884 49.2841L212.321 49.2727L210.497 55.6818H210.406L208.599 49.2727H206.054L209.185 58.25L209.043 58.6193C208.724 59.4375 208.116 59.4773 207.264 59.2159L206.719 61.0227C207.065 61.1705 207.628 61.2727 208.241 61.2727Z" fill="white"/>
</svg>
